<svg width="16" height="16" viewBox="0 0 16 16" fill="none" xmlns="http://www.w3.org/2000/svg">
<g clip-path="url(#clip0)">
<path d="M1.36595 1C0.611343 1 0 1.61244 0 2.36705V12.7511C0 13.5057 0.612437 14.1182 1.36595 14.1182H1.91277C2.66738 14.1182 3.27872 13.5057 3.27872 12.7511V2.36595C3.27872 1.61134 2.66629 1 1.91168 1H1.36705H1.36595ZM5.73722 1C4.98261 1 4.37017 1.61244 4.37017 2.36705V12.7511C4.37017 13.5057 4.98261 14.1182 5.73722 14.1182H6.28404C7.03755 14.1182 7.6489 13.5057 7.6489 12.7511V2.36595C7.6489 1.61244 7.03755 1 6.28294 1H5.73613H5.73722ZM11.9994 4.03703C11.8683 3.71102 11.6166 3.44807 11.2966 3.30285C10.9766 3.15762 10.613 3.1413 10.2813 3.25727L9.64478 3.48037C9.47062 3.54151 9.31064 3.6373 9.17449 3.76194C9.03834 3.88659 8.92885 4.03752 8.85261 4.20563C8.77638 4.37374 8.73497 4.55555 8.7309 4.74009C8.72683 4.92464 8.76018 5.10809 8.82893 5.2794L12.0409 13.2673C12.3133 13.9454 13.069 14.2877 13.759 14.0471L14.3955 13.824C14.5698 13.7629 14.7299 13.667 14.8662 13.5423C15.0024 13.4176 15.112 13.2665 15.1882 13.0983C15.2645 12.9301 15.3058 12.7481 15.3098 12.5635C15.3138 12.3788 15.2803 12.1952 15.2114 12.0239L11.9994 4.03703Z" fill="#FFC107"/>
</g>
<defs>
<clipPath id="clip0">
<rect width="16" height="16" fill="white"/>
</clipPath>
</defs>
</svg>
